HIERARCHY
ROOT hips
{
  OFFSET 0 10.6860622 2.3727825e-15
  CHANNELS 6 Xposition Yposition Zposition Yrotation Xrotation Zrotation
  JOINT leftUpperLeg
  {
    OFFSET 0.6642549969 -0.9402397400000004 0
    CHANNELS 3 Yrotation Xrotation Zrotation
    JOINT leftLowerLeg
    {
      OFFSET 0 -3.997221335632195 0
      CHANNELS 3 Yrotation Xrotation Zrotation
      JOINT leftFoot
      {
        OFFSET -0.13777839790000004 -4.6145792000000005 -0.22186036399999998
        CHANNELS 3 Yrotation Xrotation Zrotation
        JOINT leftToes
        {
          OFFSET -0.03777410834999995 -0.9130806927000008 0.85230013
          CHANNELS 3 Yrotation Xrotation Zrotation
          End Site
          {
            OFFSET -0.03777410834999995 -0.9130806927000008 0.85230013
          }
        }
      }
    }
  }
  JOINT rightUpperLeg
  {
    OFFSET -0.6642778626 -0.9402397400000004 0
    CHANNELS 3 Yrotation Xrotation Zrotation
    JOINT rightLowerLeg
    {
      OFFSET 0 -3.997221452859387 0
      CHANNELS 3 Yrotation Xrotation Zrotation
      JOINT rightFoot
      {
        OFFSET 0.1377926176 -4.6145792000000005 -0.22185782299999995
        CHANNELS 3 Yrotation Xrotation Zrotation
        JOINT rightToes
        {
          OFFSET 0.037780746850000047 -0.9130806927000008 0.85230167
          CHANNELS 3 Yrotation Xrotation Zrotation
          End Site
          {
            OFFSET 0.037780746850000047 -0.9130806927000008 0.85230167
          }
        }
      }
    }
  }
  JOINT spine
  {
    OFFSET 0 0.13988381660000015 0
    CHANNELS 3 Yrotation Xrotation Zrotation
    JOINT chest
    {
      OFFSET 0 0.6191039003973773 0
      CHANNELS 3 Yrotation Xrotation Zrotation
      JOINT upperChest
      {
        OFFSET 0 0.9855186130586943 0
        CHANNELS 3 Yrotation Xrotation Zrotation
        JOINT leftShoulder
        {
          OFFSET 0.1807663869 1.5087829790000005 0
          CHANNELS 3 Yrotation Xrotation Zrotation
          JOINT leftUpperArm
          {
            OFFSET 0.5985063006419806 0 0
            CHANNELS 3 Yrotation Xrotation Zrotation
            JOINT leftLowerArm
            {
              OFFSET 2.2993332369501065 0 0
              CHANNELS 3 Yrotation Xrotation Zrotation
              JOINT leftHand
              {
                OFFSET 2.395047042602395 0 0
                CHANNELS 3 Yrotation Xrotation Zrotation
                JOINT leftIndexProximal
                {
                  OFFSET 0.5766295810000004 0.04556643899499946 0.17265095988184
                  CHANNELS 3 Yrotation Xrotation Zrotation
                  JOINT leftIndexIntermediate
                  {
                    OFFSET 0.2957229000000008 -0.019352197700001517 -0.007932640616999987
                    CHANNELS 3 Yrotation Xrotation Zrotation
                    JOINT leftIndexDistal
                    {
                      OFFSET 0.19008243099999922 -0.012484908149998475 -0.002786250786000012
                      CHANNELS 3 Yrotation Xrotation Zrotation
                      End Site
                      {
                        OFFSET 0.19008243099999922 -0.012484908149998475 -0.002786250786000012
                      }
                    }
                  }
                }
                JOINT leftMiddleProximal
                {
                  OFFSET 0.5834975091000001 0.0524350405149987 0.02204081888183999
                  CHANNELS 3 Yrotation Xrotation Zrotation
                  JOINT leftMiddleIntermediate
                  {
                    OFFSET 0.33880573540000003 -0.019871473270000717 -0.00000971183179999946
                    CHANNELS 3 Yrotation Xrotation Zrotation
                    JOINT leftMiddleDistal
                    {
                      OFFSET 0.20676022730000088 -0.012221336379999448 0.0001471936708000235
                      CHANNELS 3 Yrotation Xrotation Zrotation
                      End Site
                      {
                        OFFSET 0.20676022730000088 -0.012221336379999448 0.0001471936708000235
                      }
                    }
                  }
                }
                JOINT leftLittleProximal
                {
                  OFFSET 0.5344154683999995 -0.012880921405001189 -0.24414037221816004
                  CHANNELS 3 Yrotation Xrotation Zrotation
                  JOINT leftLittleIntermediate
                  {
                    OFFSET 0.21758961730000093 -0.011650919939999227 0.011893592810000034
                    CHANNELS 3 Yrotation Xrotation Zrotation
                    JOINT leftLittleDistal
                    {
                      OFFSET 0.1475273964999999 -0.008152365682999818 0.006001092492999946
                      CHANNELS 3 Yrotation Xrotation Zrotation
                      End Site
                      {
                        OFFSET 0.1475273964999999 -0.008152365682999818 0.006001092492999946
                      }
                    }
                  }
                }
                JOINT leftRingProximal
                {
                  OFFSET 0.5799399463000003 0.026911854694997794 -0.12150566991816003
                  CHANNELS 3 Yrotation Xrotation Zrotation
                  JOINT leftRingIntermediate
                  {
                    OFFSET 0.26167887460000006 -0.013480186499999602 0.010996293000000053
                    CHANNELS 3 Yrotation Xrotation Zrotation
                    JOINT leftRingDistal
                    {
                      OFFSET 0.17667108799999987 -0.008990287899999228 0.0055541023999999065
                      CHANNELS 3 Yrotation Xrotation Zrotation
                      End Site
                      {
                        OFFSET 0.17667108799999987 -0.008990287899999228 0.0055541023999999065
                      }
                    }
                  }
                }
                JOINT leftThumbProximal
                {
                  OFFSET 0.11018806699999972 -0.09448718900500053 0.17047963138184
                  CHANNELS 3 Yrotation Xrotation Zrotation
                  JOINT leftThumbIntermediate
                  {
                    OFFSET 0.31062601459999983 -0.08126270900000132 0.15443142000000007
                    CHANNELS 3 Yrotation Xrotation Zrotation
                    JOINT leftThumbDistal
                    {
                      OFFSET 0.21627175790000086 -0.08833193599999878 0.018771167799999988
                      CHANNELS 3 Yrotation Xrotation Zrotation
                      End Site
                      {
                        OFFSET 0.21627175790000086 -0.08833193599999878 0.018771167799999988
                      }
                    }
                  }
                }
              }
            }
          }
        }
        JOINT neck
        {
          OFFSET 0 1.5463305265074576 0
          CHANNELS 3 Yrotation Xrotation Zrotation
          JOINT head
          {
            OFFSET 0 0.8456443600000344 0
            CHANNELS 3 Yrotation Xrotation Zrotation
            JOINT leftEye
            {
              OFFSET 0.30408573140000006 0.5104519199999995 0.1276382305
              CHANNELS 3 Yrotation Xrotation Zrotation
              End Site
              {
                OFFSET 0.30408573140000006 0.5104519199999995 0.1276382305
              }
            }
            JOINT rightEye
            {
              OFFSET -0.30409491089999996 0.5104519199999995 0.1276379445
              CHANNELS 3 Yrotation Xrotation Zrotation
              End Site
              {
                OFFSET -0.30409491089999996 0.5104519199999995 0.1276379445
              }
            }
            JOINT jaw
            {
              OFFSET -3.155239131000001e-7 -0.11984121820000082 0.60178107
              CHANNELS 3 Yrotation Xrotation Zrotation
              End Site
              {
                OFFSET -3.155239131000001e-7 -0.11984121820000082 0.60178107
              }
            }
          }
        }
        JOINT rightShoulder
        {
          OFFSET -0.1807303465 1.5087829790000005 0
          CHANNELS 3 Yrotation Xrotation Zrotation
          JOINT rightUpperArm
          {
            OFFSET -0.5985063796536958 0 0
            CHANNELS 3 Yrotation Xrotation Zrotation
            JOINT rightLowerArm
            {
              OFFSET -2.2993322059002854 0 0
              CHANNELS 3 Yrotation Xrotation Zrotation
              JOINT rightHand
              {
                OFFSET -2.395045314457259 0 0
                CHANNELS 3 Yrotation Xrotation Zrotation
                JOINT rightIndexProximal
                {
                  OFFSET -0.5764487688300002 0.0441371204405987 0.17361932004999997
                  CHANNELS 3 Yrotation Xrotation Zrotation
                  JOINT rightIndexIntermediate
                  {
                    OFFSET -0.29573011380000047 -0.01934826376999843 -0.007698921482999974
                    CHANNELS 3 Yrotation Xrotation Zrotation
                    JOINT rightIndexDistal
                    {
                      OFFSET -0.19008373999999884 -0.012503266380000655 -0.0026365778999999897
                      CHANNELS 3 Yrotation Xrotation Zrotation
                      End Site
                      {
                        OFFSET -0.19008373999999884 -0.012503266380000655 -0.0026365778999999897
                      }
                    }
                  }
                }
                JOINT rightMiddleProximal
                {
                  OFFSET -0.5834852037300005 0.05211639405060153 0.02307162440000001
                  CHANNELS 3 Yrotation Xrotation Zrotation
                  JOINT rightMiddleIntermediate
                  {
                    OFFSET -0.33880114510000003 -0.019952774050000954 0.0002455003561999819
                    CHANNELS 3 Yrotation Xrotation Zrotation
                    JOINT rightMiddleDistal
                    {
                      OFFSET -0.20675694929999955 -0.012273788999999091 0.00030209124000002766
                      CHANNELS 3 Yrotation Xrotation Zrotation
                      End Site
                      {
                        OFFSET -0.20675694929999955 -0.012273788999999091 0.00030209124000002766
                      }
                    }
                  }
                }
                JOINT rightLittleProximal
                {
                  OFFSET -0.5346811737299992 -0.011214256288399227 -0.24363941305000003
                  CHANNELS 3 Yrotation Xrotation Zrotation
                  JOINT rightLittleIntermediate
                  {
                    OFFSET -0.21757715980000092 -0.011771559690000988 0.01201554387
                    CHANNELS 3 Yrotation Xrotation Zrotation
                    JOINT rightLittleDistal
                    {
                      OFFSET -0.1475201849000004 -0.00822055339600003 0.006082065407000015
                      CHANNELS 3 Yrotation Xrotation Zrotation
                      End Site
                      {
                        OFFSET -0.1475201849000004 -0.00822055339600003 0.006082065407000015
                      }
                    }
                  }
                }
                JOINT rightRingProximal
                {
                  OFFSET -0.5800810755299999 0.027657985680600072 -0.12066365025000003
                  CHANNELS 3 Yrotation Xrotation Zrotation
                  JOINT rightRingIntermediate
                  {
                    OFFSET -0.26166445029999974 -0.013623118409999302 0.011164098990000045
                    CHANNELS 3 Yrotation Xrotation Zrotation
                    JOINT rightRingDistal
                    {
                      OFFSET -0.17666387530000027 -0.009072900100000503 0.005668185599999959
                      CHANNELS 3 Yrotation Xrotation Zrotation
                      End Site
                      {
                        OFFSET -0.17666387530000027 -0.009072900100000503 0.005668185599999959
                      }
                    }
                  }
                }
                JOINT rightThumbProximal
                {
                  OFFSET -0.10997596379000074 -0.09577489355940072 0.16989765924999997
                  CHANNELS 3 Yrotation Xrotation Zrotation
                  JOINT rightThumbIntermediate
                  {
                    OFFSET -0.31036620999999986 -0.08229339117999834 0.15440884469999996
                    CHANNELS 3 Yrotation Xrotation Zrotation
                    JOINT rightThumbDistal
                    {
                      OFFSET -0.21631306399999906 -0.08825326400000111 0.018656797720000014
                      CHANNELS 3 Yrotation Xrotation Zrotation
                      End Site
                      {
                        OFFSET -0.21631306399999906 -0.08825326400000111 0.018656797720000014
                      }
                    }
                  }
                }
              }
            }
          }
        }
      }
    }
  }
}
MOTION
Frames: 9
Frame Time: 0.03333333333333333
5.366740186748297 -5.3340508132800295 5.975208547534504 -0.000002646045270568386 67.79494091946988 -0.0000014498073054591679 8.613826149967068 -72.46790786345913 -4.607317006784482 104.0887966687472 87.02033598374874 106.5022584854556 4.149133363902711 54.388660815591585 9.321982761895757 0 0 0 -8.992172443363124 -72.44676575633935 4.924636854910913 -103.79412844427026 87.06035189059601 -106.30426712130635 -4.207004361306819 54.3932416357985 -9.379797703203382 0 0 0 -0.26522977203858633 40.73315864854988 -0.44936847819148573 -0.8282591632755224 -1.105633024332913 -1.4580752875178713 0 0 0 7.180650305071675 6.502952488043275 -16.0888090958081 -70.29536408732639 24.34464943255042 38.14101151065575 -15.091566300392858 -9.082369030697322 6.265621501423817 -0.0313609465492588 1.2175955950346717 57.7705351232003 0 0 0 0 0 0 0 0 0 0 0 0 0 0 0 0 0 0 0 0 0 0 0 0 0 0 0 0 0 0 0 0 0 0 0 0 0 0 0 0 0 0 0 0 0 0 -48.47385107443671 0 0 -54.00143592098831 0 0 0 0 0 0 0 0 0 0 -6.43138278338156 6.354164652367283 15.660098523572351 70.27678461161803 24.340912339856366 -38.147838036228634 15.088287756984013 -9.082103594357802 -6.268835483487165 0.19874444446956357 1.1776811743651605 -57.85135954596195 0 0 0 0 0 0 0 0 0 0 0 0 0 0 0 0 0 0 0 0 0 0 0 0 0 0 0 0 0 0 0 0 0 0 0 0 0 0 0 0 0 0 0 0 0
5.366740186748297 -5.336025643612301 5.979844487236775 -0.00000262363272670398 67.59501318798996 -0.0000014255822029589006 8.519109252946249 -72.1887706212657 -4.496692279724864 104.0887966687472 87.02033598374874 106.5022584854556 4.149133363902711 54.388660815591585 9.321982761895757 0 0 0 -8.890484023909412 -72.16833930464772 4.80784263050523 -103.79412844427026 87.06035189059601 -106.30426712130635 -4.207004361306819 54.3932416357985 -9.379797703203382 0 0 0 -0.2641722552808568 40.53334972038338 -0.44777743709665996 -0.8279292642419587 -0.22384782655041444 -1.4706403644311925 0 0 0 7.065151347505832 6.093704856694306 -15.98926815967403 -70.29536408732639 24.34464943255042 38.14101151065575 -15.091566300392858 -9.082369030697322 6.265621501423817 -0.028528565785418573 1.1535375426540426 57.88789037714302 0 0 0 0 0 0 0 0 0 0 0 0 0 0 0 0 0 0 0 0 0 0 0 0 0 0 0 0 0 0 0 0 0 0 0 0 0 0 0 0 0 0 0 0 0 0 -48.47385107443671 0 0 -54.00143592098831 0 0 0 0 0 0 0 0 0 0 -6.354281295608576 5.953771344172459 15.580481987325813 70.27678461161803 24.340912339856366 -38.147838036228634 15.088287756984013 -9.082103594357802 -6.268835483487165 0.18717851543992192 1.1158800201666803 -57.96474907922883 0 0 0 0 0 0 0 0 0 0 0 0 0 0 0 0 0 0 0 0 0 0 0 0 0 0 0 0 0 0 0 0 0 0 0 0 0 0 0 0 0 0 0 0 0
5.366740186748297 -5.338000742336842 5.984479890154502 -0.0000026016245079974205 67.39503976250906 -0.000001401759838194757 8.427540992101637 -71.90956872259348 -4.389205706434374 104.0887966687472 87.02033598374874 106.5022584854556 4.149133363902711 54.388660815591585 9.321982761895757 0 0 0 -8.792139969195814 -71.88985956357392 4.694380239865876 -103.79412844427026 87.06035189059601 -106.30426712130635 -4.207004361306819 54.3932416357985 -9.379797703203382 0 0 0 -0.26312431583407675 40.333547961203585 -0.44619508855486173 -0.8277923281398393 0.6577255907109677 -1.4831972059702954 0 0 0 6.949027738723376 5.684682405739392 -15.888977562984417 -70.29536408732639 24.34464943255042 38.14101151065575 -15.091566300392858 -9.082369030697322 6.265621501423817 -0.025827963264818975 1.0894730334983547 58.00522999639704 0 0 0 0 0 0 0 0 0 0 0 0 0 0 0 0 0 0 0 0 0 0 0 0 0 0 0 0 0 0 0 0 0 0 0 0 0 0 0 0 0 0 0 0 0 0 -48.47385107443671 0 0 -54.00143592098831 0 0 0 0 0 0 0 0 0 0 -6.276677073274455 5.55350622012494 15.500379081769708 70.27678108323293 24.340908591574017 -38.14784624696019 15.088287756984013 -9.082103594357802 -6.268835483487165 0.17573595017360916 1.0540554007506586 -58.07811088310885 0 0 0 0 0 0 0 0 0 0 0 0 0 0 0 0 0 0 0 0 0 0 0 0 0 0 0 0 0 0 0 0 0 0 0 0 0 0 0 0 0 0 0 0 0
5.366740186748297 -5.339976109453654 5.989115293072229 -0.0000025800163698989347 67.1950986766773 -0.0000013783365755929504 8.338986487723643 -71.63032020992274 -4.284721042637093 104.0887966687472 87.02033598374874 106.5022584854556 4.149133363902711 54.388660815591585 9.321982761895757 0 0 0 -8.69698886849219 -71.61133326762156 4.584099353757837 -103.79412844427026 87.06035189059601 -106.30426712130635 -4.207004361306819 54.3932416357985 -9.379797703203382 0 0 0 -0.2620871772276811 40.13374642158939 -0.44462234471144935 -0.8278481926778224 1.5389870778055952 -1.4957521561364604 0 0 0 6.832277377402291 5.275898540407243 -15.787934748707498 -70.29536408732639 24.34464943255042 38.14101151065575 -15.091566300392858 -9.082369030697322 6.265621501423817 -0.023258263058788496 1.0254046563687598 58.12256432376764 0 0 0 0 0 0 0 0 0 0 0 0 0 0 0 0 0 0 0 0 0 0 0 0 0 0 0 0 0 0 0 0 0 0 0 0 0 0 0 0 0 0 0 0 0 0 -48.47385107443671 0 0 -54.00143592098831 0 0 0 0 0 0 0 0 0 0 -6.198570984698396 5.153383356085049 15.419796527478919 70.27678461161803 24.340912339856366 -38.147838036228634 15.088287756984013 -9.082103594357802 -6.268835483487165 0.16441602237866895 0.9922088466388644 -58.19146209378046 0 0 0 0 0 0 0 0 0 0 0 0 0 0 0 0 0 0 0 0 0 0 0 0 0 0 0 0 0 0 0 0 0 0 0 0 0 0 0 0 0 0 0 0 0
5.366740186748297 -5.3419512081781955 5.993751232774499 -0.000002558794848503178 66.99515177246325 -0.0000013552986267159479 8.253303762317653 -71.35105265793976 -4.183097234604012 104.0887966687472 87.02033598374874 106.5022584854556 4.149133363902711 54.388660815591585 9.321982761895757 0 0 0 -8.604887305503789 -71.33276666141872 4.476857194740716 -103.79412844427026 87.06035189059601 -106.30426712130635 -4.207004361306819 54.3932416357985 -9.379797703203382 0 0 0 -0.2610606833385299 39.93395604194249 -0.4430600017367774 -0.8280977904751412 2.419831661631502 -1.5083076117478362 0 0 0 6.71489031454771 4.867369685238798 -15.686122328873493 -70.29536408732639 24.34464943255042 38.14101151065575 -15.091566300392858 -9.082369030697322 6.265621501423817 -0.02081972887646514 0.9613310505565315 58.23989427946141 0 0 0 0 0 0 0 0 0 0 0 0 0 0 0 0 0 0 0 0 0 0 0 0 0 0 0 0 0 0 0 0 0 0 0 0 0 0 0 0 0 0 0 0 0 0 -48.47385107443671 0 0 -54.00143592098831 0 0 0 0 0 0 0 0 0 0 -6.119954151301896 4.7534125345708045 15.33872492114398 70.27678461161803 24.340912339856366 -38.147838036228634 15.088287756984013 -9.082103594357802 -6.268835483487165 0.15321803182318294 0.9303408207195 -58.30479015041939 0 0 0 0 0 0 0 0 0 0 0 0 0 0 0 0 0 0 0 0 0 0 0 0 0 0 0 0 0 0 0 0 0 0 0 0 0 0 0 0 0 0 0 0 0
5.366740186748297 -5.343926306902737 5.998386635692225 -0.000002537951261047757 66.79522278906434 -0.000001332637321573409 8.170381484478822 -71.07174985957295 -4.084220262232189 104.0887966687472 87.02033598374874 106.5022584854556 4.149133363902711 54.388660815591585 9.321982761895757 0 0 0 -8.515699263844354 -71.05415501730496 4.372518288664088 -103.79412844427026 87.06035189059601 -106.30426712130635 -4.207004361306819 54.3932416357985 -9.379797703203382 0 0 0 -0.26004338497403506 39.73416542422955 -0.4415060052225707 -0.8285400403092432 3.300153330308097 -1.5208700654008533 0 0 0 6.5968611395630905 4.459111001384461 -15.583553109477846 -70.29536408732639 24.34464943255042 38.14101151065575 -15.091566300392858 -9.082369030697322 6.265621501423817 -0.0185134453527114 0.8972541641996569 58.35720959255787 0 0 0 0 0 0 0 0 0 0 0 0 0 0 0 0 0 0 0 0 0 0 0 0 0 0 0 0 0 0 0 0 0 0 0 0 0 0 0 0 0 0 0 0 0 0 -48.47385107443671 0 0 -54.00143592098831 0 0 0 0 0 0 0 0 0 0 -6.040823423179754 4.353606542606205 15.257158203515823 70.27678461161803 24.340912339856366 -38.147838036228634 15.088287756984013 -9.082103594357802 -6.268835483487165 0.14214290682547553 0.8684518390620474 -58.418118710713514 0 0 0 0 0 0 0 0 0 0 0 0 0 0 0 0 0 0 0 0 0 0 0 0 0 0 0 0 0 0 0 0 0 0 0 0 0 0 0 0 0 0 0 0 0
5.366740186748297 -5.345901137235008 6.003022038609953 -0.000002517473972261676 66.59527449754539 -0.0000013103410350976844 8.090079830875139 -70.79241718095133 -3.987955767549263 104.0887966687472 87.02033598374874 106.5022584854556 4.149133363902711 54.388660815591585 9.321982761895757 0 0 0 -8.429301162282313 -70.77551451753597 4.270957682668253 -103.79412844427026 87.06035189059601 -106.30426712130635 -4.207004361306819 54.3932416357985 -9.379797703203382 0 0 0 -0.25903654597855325 39.53438100783103 -0.43996119281080504 -0.8291761296558976 4.179854121704471 -1.5334428771617863 0 0 0 6.478182973553457 4.051134687539561 -15.480211633442268 -70.29536055842703 24.344645684157463 38.14101972183014 -15.091566300392858 -9.082369030697322 6.265621501423817 -0.016337396774307775 0.8331726365410869 58.47451008981988 0 0 0 0 0 0 0 0 0 0 0 0 0 0 0 0 0 0 0 0 0 0 0 0 0 0 0 0 0 0 0 0 0 0 0 0 0 0 0 0 0 0 0 0 0 0 -48.47385107443671 0 0 -54.00143592098831 0 0 0 0 0 0 0 0 0 0 -5.961177131391135 3.9539756070774437 15.175090773964003 70.27678461161803 24.340912339856366 -38.147838036228634 15.088287756984013 -9.082103594357802 -6.268835483487165 0.13119088270180265 0.8065417771585663 -58.531425791696044 0 0 0 0 0 0 0 0 0 0 0 0 0 0 0 0 0 0 0 0 0 0 0 0 0 0 0 0 0 0 0 0 0 0 0 0 0 0 0 0 0 0 0 0 0
5.366740186748297 -5.347876772744092 6.007657978312223 -0.000002497357748404278 66.3953646566211 -0.0000012884047189901872 8.012308457829315 -70.51308007041284 -3.894205478923343 104.0887966687472 87.02033598374874 106.5022584854556 4.149133363902711 54.388660815591585 9.321982761895757 0 0 0 -8.345585736180995 -70.49685012883913 4.17206689133286 -103.79412844427026 87.06035189059601 -106.30426712130635 -4.207004361306819 54.3932416357985 -9.379797703203382 0 0 0 -0.25803878005409026 39.334604735989956 -0.43842456613437786 -0.8300062905977823 5.058823626967637 -1.5460303555741688 0 0 0 6.358849604800008 3.643458550794164 -15.376093036764134 -70.29536408732639 24.34464943255042 38.14101151065575 -15.091566300392858 -9.082369030697322 6.265621501423817 -0.014293777226312362 0.7690886290164831 58.59181191442781 0 0 0 0 0 0 0 0 0 0 0 0 0 0 0 0 0 0 0 0 0 0 0 0 0 0 0 0 0 0 0 0 0 0 0 0 0 0 0 0 0 0 0 0 0 0 -48.47385107443671 0 0 -54.00143592098831 0 0 0 0 0 0 0 0 0 0 -5.8810077012539095 3.554534678839073 15.092522148678794 70.2767881400033 24.340914213997582 -38.1478298254966 15.088287756984013 -9.082103594357802 -6.268835483487165 0.12036093532587563 0.7446111507451351 -58.64471692111033 0 0 0 0 0 0 0 0 0 0 0 0 0 0 0 0 0 0 0 0 0 0 0 0 0 0 0 0 0 0 0 0 0 0 0 0 0 0 0 0 0 0 0 0 0
5.366740186748297 -5.349851603076361 6.012293381229951 -0.0000024775904608234417 66.19544764106934 -0.0000012668160264961678 7.936946952841279 -70.23371200788189 -3.8028540992342164 104.0887966687472 87.02033598374874 106.5022584854556 4.149133363902711 54.388660815591585 9.321982761895757 0 0 0 -8.26442995719695 -70.21817654644308 4.0757246596911285 -103.79412844427026 87.06035189059601 -106.30426712130635 -4.207004361306819 54.3932416357985 -9.379797703203382 0 0 0 -0.25705124813846886 39.134842926159614 -0.4368969266177948 -0.8310310431049887 5.936967055905907 -1.5586371843705231 0 0 0 6.238854209769146 3.236095740197596 -15.271198660253832 -70.29536408732639 24.34464943255042 38.14101151065575 -15.091566300392858 -9.082369030697322 6.265621501423817 -0.012381037593850982 0.7050017413861288 58.70911891580361 0 0 0 0 0 0 0 0 0 0 0 0 0 0 0 0 0 0 0 0 0 0 0 0 0 0 0 0 0 0 0 0 0 0 0 0 0 0 0 0 0 0 0 0 0 0 -48.47385107443671 0 0 -54.00143592098831 0 0 0 0 0 0 0 0 0 0 -5.800311621227096 3.1552927406163653 15.009443162141748 70.27678461161803 24.340912339856366 -38.147838036228634 15.088287756984013 -9.082103594357802 -6.268835483487165 0.10965474741482337 0.6826612758511649 -58.758003457754945 0 0 0 0 0 0 0 0 0 0 0 0 0 0 0 0 0 0 0 0 0 0 0 0 0 0 0 0 0 0 0 0 0 0 0 0 0 0 0 0 0 0 0 0 0
